<svg width="305" height="146" viewBox="0 0 305 146" fill="none" xmlns="http://www.w3.org/2000/svg">
<g filter="url(#filter0_d_17_852)">
<path d="M33.2792 10.4516C32.1739 10.8243 30.8515 11.5037 30.3575 11.8657C27.396 14.1892 27.2185 19.9475 30.1085 19.8971C30.6087 19.8884 30.8187 19.1779 30.7957 17.8657C30.742 14.7871 31.9877 12.8974 34.3148 12.4529C35.4237 12.2821 36.4232 12.2142 36.5925 12.3627C36.7619 12.5112 36.1081 16.4604 35.0786 21.1734C34.049 25.8865 33.2337 30.1414 33.2417 30.5956C33.2549 31.3527 33.6466 31.4973 35.3112 31.3168L37.3649 31.1295L38.5462 25.5555C39.215 22.4643 40.0875 18.3093 40.5525 16.2818L41.3765 12.5316L43.439 12.849C44.554 13.0315 45.5023 13.2168 45.6144 13.2654C45.6717 13.3653 44.9588 17.1136 43.9257 21.6248C42.9482 26.135 42.1294 30.1881 42.1365 30.5918C42.1462 31.147 42.649 31.2897 44.2034 31.1616L46.257 30.9743L47.6536 24.9927C49.0961 18.455 50.1803 16.8711 51.9367 18.7588C52.503 19.3547 52.4659 20.4156 51.7513 24.0629C50.7817 29.0273 50.9616 29.7815 53.7007 30.6424C54.7072 30.9782 55.5382 30.8123 57.1905 29.9252C59.2839 28.8285 59.3395 28.8275 60.5233 29.766C63.003 31.6916 68.424 30.133 71.0326 26.705C72.7176 24.5047 71.8804 24.3174 69.9158 26.4216C67.0769 29.3992 63.2422 29.4661 63.1902 26.4885C63.1699 25.3277 63.4972 24.9686 65.1001 24.4357C67.6972 23.5322 69.7668 21.0728 69.7298 18.9531C69.6946 16.9343 68.5107 15.9958 66.0654 16.0384C62.1751 16.1064 59.5656 19.4839 58.8332 25.3024C58.595 27.5784 58.2739 28.2908 57.442 28.4062C55.6142 28.7915 55.3195 27.8375 56.193 23.733C57.1696 19.1723 56.9227 17.7631 54.9017 16.6372C53.5537 15.853 53.3314 15.8568 51.5115 16.6964C50.4635 17.169 49.4684 17.4893 49.3564 17.4408C49.2435 17.3418 49.4967 15.9238 49.8566 14.2515C50.7909 10.4488 50.5598 9.94804 47.6143 9.99945C46.3361 10.0218 43.0553 9.97806 40.3294 9.87419C36.8246 9.73342 34.7709 9.92072 33.2792 10.4516ZM68.0449 17.9728C69.347 19.3132 66.8592 23.2944 64.6917 23.3322C63.469 23.3536 63.395 22.2947 64.5251 20.1546C66.1951 17.0964 66.8549 16.681 68.0449 17.9728Z" fill="black"/>
<path d="M80.6412 29.3644C69.3918 31.4287 58.1451 36.8249 52.5802 42.8792C49.0894 46.7265 47.8067 49.677 47.8225 53.766C47.893 57.8035 48.8113 59.4535 52.0082 61.0637C53.4664 61.7955 59.8814 63.0466 60.2634 62.6361C60.3728 62.5332 60.0781 61.5791 59.615 60.527C57.1178 54.4115 59.8033 45.8327 65.9371 40.5257C68.2378 38.5672 74.8461 34.9684 75.4098 35.4129C75.5236 35.5624 71.887 50.1654 67.3038 67.8645C62.6658 85.6151 58.9198 100.321 58.9251 100.624C58.9313 100.977 60.2686 101.156 62.4361 101.118C70.05 100.985 77.5457 103.631 90.013 110.834C101.132 117.203 107.071 119.876 112.033 120.698C116.718 121.525 119.434 121.074 122.289 119.055C124.814 117.194 127.729 112.195 128.279 108.652L128.63 106.475L126.469 106.917C125.306 107.139 121.363 107.41 117.694 107.423C109.635 107.513 106.174 106.716 93.691 101.784C89.1012 99.9962 83.563 98.023 81.385 97.4552C77.9216 96.5059 77.4726 96.2613 77.6217 95.249C77.6658 94.592 81.4639 79.6832 86.048 62.0345C90.633 44.4363 94.3773 29.6295 94.3693 29.1752C94.357 28.4687 93.6328 28.3804 89.521 28.5026C86.7978 28.5501 82.8581 28.9723 80.6412 29.3644Z" fill="black"/>
<path d="M106.621 36.736C104.198 38.0909 104.389 42.6312 106.919 44.3035C107.764 44.8946 108.29 46.3999 109.15 51.08L110.312 57.1179L108.986 60.7759L107.605 64.4854L104.437 64.5407C100.603 64.6076 95.4164 66.869 92.9066 69.5885C81.7179 81.4962 89.6321 101.754 105.362 101.58C111.81 101.518 117.359 97.7359 120.689 91.0643C122.192 88.009 122.346 87.2491 122.214 82.9097C122.116 77.3076 120.893 74.0979 117.376 70.0701C115.9 68.3289 115.326 67.2787 115.651 66.8187C116.03 66.2063 116.197 66.2033 116.875 66.8478C118.006 67.9387 126.159 76.4293 129.899 80.4532C131.712 82.3905 133.466 84.1773 133.749 84.4753C134.087 84.7218 136.707 85.1304 139.658 85.3818L144.947 85.7944L145.94 88.5537C147.281 92.1652 147.968 93.2638 150.738 95.8912C156.617 101.493 164.969 102.256 171.617 97.6976C172.881 96.8678 174.036 96.1408 174.202 96.1379C174.369 96.135 174.531 99.0603 174.595 102.694L174.709 109.255L178.044 109.197L181.378 109.139L181.132 95.0073C180.854 79.1095 180.906 78.9066 184.73 75.003C188.936 70.7394 192.808 69.6116 196.346 71.6702C200.277 73.9239 201.596 79.4542 199.401 84.2885C198.167 86.8343 192.539 92.4354 190.604 93.075C189.055 93.5059 189.117 93.8582 191.231 97.1028L193.002 99.8485L194.654 98.9614C198.013 97.0854 202.708 92.1569 204.696 88.2349C209.161 79.6755 206.877 69.8709 199.408 65.5586C197.386 64.3823 196.549 64.195 192.825 64.26C189.157 64.324 188.272 64.5414 186.347 65.7361C185.082 66.5155 183.327 67.9092 182.398 68.8341L180.704 70.5297L180.565 62.5556L180.427 54.6319L220.442 53.9334L260.456 53.235L260.539 57.9791L260.621 62.6727L256.894 62.5358C252.332 62.363 250.18 63.2588 247.513 66.5364L245.771 68.6367L244.065 66.4451C238.494 59.424 227.022 61.4922 222.895 70.2981C221.233 73.8105 220.972 81.1354 222.386 85.7048C224.687 93.3383 231.947 101.592 240.819 106.637C245.536 109.331 245.315 109.386 247.524 105.359L248.547 103.473L247.031 102.591C237.435 97.4574 234.05 94.6389 231.126 89.5405C226.595 81.5925 227.364 71.5327 232.825 69.0646C237.624 66.911 241.008 69.679 242.528 77.1242L243.259 80.7968L246.26 80.7444L249.261 80.6921L249.21 77.7648C249.106 71.8095 252.876 68.0078 258.224 68.6717L260.73 68.9309L261.07 88.3615L261.408 107.742L265.02 107.679L268.633 107.616L268.157 80.3622L267.681 53.1089L271.85 53.0361L276.073 52.9624L275.851 49.7857L275.63 46.6595L219.44 47.4889L163.251 48.3687L163.506 47.1021C163.859 45.0261 163.035 42.3648 161.687 41.5806C160.676 40.9924 159.175 41.0186 152.402 41.5407C144.908 42.1764 144.243 42.2889 143.152 43.4691C141.841 44.8046 141.592 46.475 142.503 47.7212C142.958 48.319 142.684 48.5258 141.242 48.7529C139.58 49.0343 139.471 49.1877 139.339 51.1589L139.21 53.3319L128.484 53.5192C116.146 53.7345 117.435 54.3179 116.602 48.0218C116.213 44.8481 116.209 44.6462 117.321 44.6268C118.877 44.5996 120.726 42.2451 120.692 40.2768C120.676 39.3683 120.153 38.0648 119.473 37.3195C118.339 36.0771 118.116 36.0305 112.947 36.1208C110.002 36.1722 107.116 36.475 106.621 36.736ZM173.868 61.0569C173.929 64.5393 173.811 67.3685 173.589 67.3724C173.311 67.3772 172.021 66.693 170.673 65.9088C167.47 63.9958 164.401 63.3425 160.682 63.6599L157.685 63.9646L155.674 60.2134C154.582 58.1626 153.824 56.1564 153.985 55.8002C154.198 55.2412 156.251 55.0539 164.032 54.9181L173.758 54.7483L173.868 61.0569ZM141.643 62.1748C141.656 62.8813 135.607 73.0838 135.218 73.0906C134.663 73.1003 124.982 63.1219 124.972 62.5667C124.969 62.3648 128.745 62.097 133.302 62.0175C137.915 61.9369 141.641 62.0234 141.643 62.1748ZM150.24 67.3761C150.357 67.7274 149.93 68.7446 149.222 69.5647C148.514 70.4353 147.327 72.4754 146.521 74.0545C145.771 75.6831 144.847 76.9108 144.512 76.8157C143.562 76.5294 143.826 75.7675 146.634 71.0234C149.008 66.8927 149.718 66.1231 150.24 67.3761ZM166.562 72.493C169.31 73.8586 171.599 77.605 171.887 81.3359C172.433 87.1321 169.507 91.4743 164.36 92.8263C161.98 93.4231 161.59 93.3795 159.07 92.3128C155.709 90.8569 153.437 88.1199 152.596 84.4997C151.93 81.3813 152.533 77.7359 154.057 75.8413L155.091 74.5612L156.353 76.811C158.588 80.6593 159.719 81.7502 161.387 81.7211C164.277 81.6706 166.158 78.0029 164.073 76.3733C163.452 75.8288 163.106 75.1281 163.265 74.6709C163.425 74.2643 163.421 74.0624 163.202 74.2681C162.819 74.6282 160.722 72.2921 160.707 71.4341C160.696 70.8285 164.6 71.5176 166.562 72.493ZM102.449 78.0043C101.597 80.19 100.861 82.5756 100.874 83.3327C100.91 85.4019 102.889 87.2858 105.056 87.2479C107.335 87.2082 108.318 86.2318 109.808 82.369C110.445 80.6918 111.19 78.7604 111.456 78.049L111.989 76.7776L112.791 78.1267C116.856 84.8711 111.174 93.7546 103.593 92.6248C96.9605 91.63 93.6958 82.9531 97.7089 77.1783C99.0648 75.2362 103.522 72.6342 103.928 73.5863C103.987 73.7872 103.355 75.7671 102.449 78.0043Z" fill="black"/>
<path d="M142.182 112.145C139.26 113.509 138.374 116.907 140.409 118.84L141.539 119.881L139.513 121.683C137.596 123.281 137.436 123.688 137.477 126.06C137.518 128.382 137.748 128.832 139.383 130.116C141.581 131.845 143.918 131.955 147.004 130.437C148.217 129.861 149.432 129.385 149.821 129.379C150.155 129.373 150.869 128.906 151.415 128.341C152.78 126.904 153.172 127.048 153.929 129.054C154.746 131.261 156.758 131.832 159.126 130.579C160.613 129.745 160.668 129.745 160.461 130.606C159.57 133.701 159.014 136.892 159.296 137.139C159.466 137.288 160.41 137.221 161.406 136.951C163.065 136.468 163.282 136.161 163.9 133.323L164.568 130.232L166.19 130.759C167.476 131.191 168.197 131.128 169.687 130.445C172.113 129.343 173.456 126.644 173.715 122.348C173.882 119.215 173.822 118.913 172.587 118.228C171.689 117.739 169.849 117.468 167.237 117.514L163.236 117.583L162.675 120.471C161.293 127.31 160.868 128.428 159.592 128.602C158.76 128.718 158.199 128.425 157.683 127.525C156.991 126.073 157.255 125.311 159.702 122.138C161.495 119.785 161.285 117.315 159.284 117.349C157.673 117.378 157.035 119.055 158.437 119.737C158.941 119.981 159.338 120.428 159.344 120.781C159.303 121.59 157.231 123.898 156.835 123.551C156.666 123.403 156.199 122.098 155.783 120.591C155.126 117.977 155.069 117.928 152.955 117.813C150.952 117.697 150.841 117.749 151.194 118.854C151.372 119.507 151.849 121.316 152.21 122.925C152.928 125.841 152.874 125.892 151.396 127.231C150.357 128.208 149.97 128.366 150.182 127.757C150.606 126.588 150.273 126.594 148.906 127.88C147.484 129.217 144.427 129.271 143.183 128.081C141.6 126.543 141.885 123.812 143.91 121.959C144.84 121.085 145.883 120.36 146.161 120.355C146.439 120.35 145.872 119.704 144.913 118.913C142.882 117.232 142.565 114.966 144.154 113.625C145.688 112.336 148.306 112.644 148.555 114.154C148.677 114.808 148.525 115.619 148.198 115.978C147.87 116.337 147.767 116.793 147.992 116.941C148.726 117.584 149.777 117.263 150.369 116.192C152.366 112.725 146.814 109.944 142.182 112.145ZM170.15 121.956C170.053 125.946 168.99 128.741 167.326 128.972C164.776 129.37 164.769 129.017 166.837 120.095C167.099 119.182 167.429 118.924 168.654 119.054C170.101 119.18 170.159 119.28 170.15 121.956Z" fill="black"/>
<path d="M202.693 116.794C201.697 117.063 201.099 117.831 200.411 119.812C199.88 121.285 198.857 123.171 198.094 124.043C197.386 124.863 196.626 125.936 196.412 126.445C195.78 128.425 191.626 129.305 190.597 127.708C189.624 126.109 189.895 125.7 192.488 124.545C195.522 123.179 196.61 121.847 196.571 119.627C196.534 117.457 194.684 116.58 191.695 117.339C189.148 117.939 187.463 120.139 186.693 123.787C185.557 128.805 188.163 131.587 192.809 130.193C193.971 129.87 195.294 129.241 195.675 128.78C196.274 128.063 196.442 128.11 197.292 129.055C198.597 130.547 202.605 130.88 204.975 129.728C205.968 129.257 206.735 128.587 206.728 128.234C206.777 127.829 207.001 127.926 207.454 128.423C209.043 130.263 212.835 130.904 215.149 129.702C216.747 128.917 220.739 125.112 220.344 124.765C220.174 124.617 219.677 124.777 219.183 125.139C218.689 125.501 218.248 125.71 218.19 125.61C217.736 125.063 216.01 118.53 215.99 117.369C215.967 116.108 215.855 116.059 214.193 116.391C211.867 116.886 211.867 116.886 210.814 120.236C210.285 121.811 209.368 123.392 208.599 123.91L207.335 124.79L206.395 121.878C205.868 120.323 205.445 118.412 205.432 117.655C205.407 116.241 205.016 116.147 202.693 116.794ZM195.23 119.196C195.635 120.097 194.126 122.85 193.022 123.273C191.032 123.964 190.583 123.72 191.054 122.045C191.894 119.204 194.476 117.442 195.23 119.196ZM202.752 123.356C203.41 126.02 203.419 126.525 202.605 127.7C201.682 128.978 200.909 129.244 199.287 128.717C198.001 128.285 198.151 127.323 199.642 126.742C200.47 126.374 200.793 125.813 200.723 124.956C200.523 123.041 201.078 119.851 201.528 120.146C201.808 120.242 202.334 121.697 202.752 123.356ZM213.193 122.77C214.143 126.236 214.1 126.944 212.84 128.026C212.128 128.644 211.353 128.809 210.349 128.625C208.619 128.251 208.546 127.243 210.201 126.558C211.029 126.19 211.353 125.629 211.282 124.772C211.084 122.958 211.536 120.224 212.092 120.214C212.314 120.21 212.835 121.362 213.193 122.77Z" fill="black"/>
<path d="M176.116 122.962C175.504 126.103 174.835 129.194 174.679 129.803C174.419 130.868 174.643 130.965 176.422 130.934C178.589 130.896 178.643 130.794 179.971 124.056C180.945 119.344 182.091 118.113 183.791 119.951C184.697 120.894 186.571 120.003 186.547 118.59C186.524 117.278 185.071 116.849 183.137 117.539C182.254 117.908 181.532 117.92 181.527 117.668C181.523 117.416 180.574 117.23 179.352 117.252L177.24 117.288L176.116 122.962Z" fill="black"/>
<path d="M231.282 123.968C229.127 124.763 229.119 127.49 231.305 128.512C232.707 129.194 234.475 128.557 235.008 127.235C235.861 125.151 233.546 123.121 231.282 123.968Z" fill="black"/>
<path d="M272.357 123.504C270.213 124.904 271.384 128.266 273.996 128.221C276.608 128.175 277.66 124.774 275.469 123.449C274.794 123.007 274.066 122.666 273.899 122.669C273.732 122.672 273.016 123.038 272.357 123.504Z" fill="black"/>
<path d="M243.913 124.657C243.104 126.084 243.287 126.99 244.414 127.879C245.767 128.966 246.934 128.895 248.026 127.765C249.118 126.636 249.202 125.069 248.242 124.228C247.169 123.287 244.561 123.535 243.913 124.657Z" fill="black"/>
</g>
<defs>
<filter id="filter0_d_17_852" x="-4" y="0" width="312.765" height="152.572" filterUnits="userSpaceOnUse" color-interpolation-filters="sRGB">
<feFlood flood-opacity="0" result="BackgroundImageFix"/>
<feColorMatrix in="SourceAlpha" type="matrix" values="0 0 0 0 0 0 0 0 0 0 0 0 0 0 0 0 0 0 127 0" result="hardAlpha"/>
<feOffset dy="4"/>
<feGaussianBlur stdDeviation="2"/>
<feComposite in2="hardAlpha" operator="out"/>
<feColorMatrix type="matrix" values="0 0 0 0 0 0 0 0 0 0 0 0 0 0 0 0 0 0 0.25 0"/>
<feBlend mode="normal" in2="BackgroundImageFix" result="effect1_dropShadow_17_852"/>
<feBlend mode="normal" in="SourceGraphic" in2="effect1_dropShadow_17_852" result="shape"/>
</filter>
</defs>
</svg>
